<svg fill="#000000" height="200px" width="200px" version="1.1" id="Layer_1" xmlns="http://www.w3.org/2000/svg" xmlns:xlink="http://www.w3.org/1999/xlink" viewBox="0 0 512 512" xml:space="preserve"><g id="SVGRepo_bgCarrier" stroke-width="0"></g><g id="SVGRepo_tracerCarrier" stroke-linecap="round" stroke-linejoin="round"></g><g id="SVGRepo_iconCarrier"> <g> <g> <path d="M483.947,215.675c40.735-52.4,37.044-128.383-11.079-176.505C423.957-9.742,347.983-12.164,296.354,28.082L283.81,15.538 c-6.522-6.523-17.108-6.525-23.632,0l-47.265,47.264c-6.522,6.521-6.526,17.107,0,23.632l11.817,11.817L98.212,224.768 l-11.817-11.817c-6.525-6.526-17.106-6.526-23.632,0l-47.265,47.265c-6.522,6.52-6.526,17.107,0,23.632l12.554,12.554 C-12.682,348.802-8.99,424.785,39.132,472.907c48.114,48.115,124.091,51.825,176.505,11.079l12.553,12.553 c6.522,6.523,17.108,6.525,23.632,0l47.265-47.264c6.522-6.52,6.526-17.107,0-23.632l-11.817-11.817l126.518-126.517 l11.815,11.815c6.519,6.522,17.107,6.525,23.632,0L496.5,251.86c6.526-6.526,6.526-17.106,0-23.632L483.947,215.675z M271.995,50.986l23.632,23.632L271.995,98.25l-23.633-23.632L271.995,50.986z M74.579,248.4 c15.064,15.064,8.586,8.586,23.633,23.632c-1.743,1.743,5.099-5.099-23.633,23.632c-1.743-1.743,5.099,5.099-23.633-23.632 L74.579,248.4z M180.926,449.275l10.822,10.822c-39.029,27.864-93.721,24.441-128.985-10.822 C27.698,414.209,24.11,359.43,51.951,320.3l10.813,10.813c6.525,6.526,17.106,6.527,23.632,0l11.817-11.817l94.531,94.529 l-11.817,11.817C174.4,432.169,174.4,442.749,180.926,449.275z M240.006,461.09l-23.632-23.632l23.632-23.632l23.633,23.632 L240.006,461.09z M378.339,251.86l11.817,11.817L263.638,390.194l-11.817-11.817c-6.519-6.522-17.107-6.525-23.632,0 l-11.815,11.815l-94.53-94.53l11.817-11.817c6.522-6.52,6.526-17.107,0-23.632l-11.817-11.817l126.517-126.516l11.817,11.817 c6.519,6.522,17.107,6.525,23.632,0l11.815-11.817l94.53,94.53l-11.817,11.817C371.817,234.749,371.813,245.335,378.339,251.86z M437.421,263.677l-23.633-23.632l23.633-23.632l23.632,23.632L437.421,263.677z M460.049,191.777l-10.813-10.813 c-6.522-6.523-17.108-6.525-23.632,0l-11.815,11.815l-94.531-94.53l11.815-11.817c6.526-6.526,6.526-17.106,0-23.632 L320.251,51.98c39.028-27.864,93.721-24.442,128.984,10.823C484.302,97.869,487.89,152.647,460.049,191.777z"></path> </g> </g> <g> <g> <path d="M331.074,228.228c-6.525-6.526-17.106-6.526-23.632,0l-79.253,79.253c-6.526,6.526-6.526,17.106,0,23.632 c6.525,6.526,17.106,6.527,23.632,0l79.253-79.253C337.6,245.334,337.6,234.754,331.074,228.228z"></path> </g> </g> <g> <g> <path d="M283.81,180.963c-6.525-6.526-17.106-6.526-23.632,0l-79.253,79.253c-6.526,6.526-6.526,17.106,0,23.632 c6.525,6.526,17.107,6.527,23.632,0l79.253-79.253C290.336,198.069,290.336,187.489,283.81,180.963z"></path> </g> </g> </g></svg>