<svg version="1.1" id="Layer_1" xmlns="http://www.w3.org/2000/svg" xmlns:xlink="http://www.w3.org/1999/xlink" viewBox="0 0 512.001 512.001" xml:space="preserve" fill="#000000"><g id="SVGRepo_bgCarrier" stroke-width="0"></g><g id="SVGRepo_tracerCarrier" stroke-linecap="round" stroke-linejoin="round"></g><g id="SVGRepo_iconCarrier"> <path style="fill:#333E48;" d="M224.601,473.465c-51.381,51.381-134.684,51.381-186.065,0s-51.381-134.684,0-186.065L287.4,38.536 c51.381-51.381,134.684-51.381,186.065,0c51.38,51.381,51.38,134.684,0,186.065L224.601,473.465z"></path> <path style="opacity:0.2;enable-background:new ;" d="M463.293,156.665l-9.513-9.513c-5.206-5.205-13.646-5.205-18.853,0 l-12.525,12.524L352.325,89.6l12.524-12.526c5.206-5.205,5.206-13.646,0-18.853l-9.513-9.513c-5.206-5.205-13.646-5.205-18.853,0 L291.864,93.33c-5.206,5.205-5.206,13.646,0,18.853l9.513,9.513c5.206,5.205,13.646,5.205,18.853,0l12.526-12.524l21.968,21.969 l-18.614,18.614c-7.218,7.218-7.218,18.922,0,26.141c7.219,7.218,18.923,7.218,26.141,0l18.614-18.614l21.969,21.969l-12.524,12.526 c-5.206,5.205-5.206,13.646,0,18.853l9.513,9.513c5.206,5.205,13.646,5.205,18.853,0l44.621-44.621 C468.5,170.311,468.5,161.871,463.293,156.665z"></path> <path style="opacity:0.2;enable-background:new ;" d="M21.95,382.095l9.513,9.512c5.205,5.206,13.646,5.206,18.851,0 l12.524-12.524l70.078,70.078l-12.524,12.524c-5.205,5.206-5.205,13.647,0,18.853l9.512,9.513c5.205,5.206,13.646,5.206,18.852,0 l44.621-44.619c5.205-5.206,5.205-13.647,0-18.853l-9.513-9.514c-5.205-5.204-13.646-5.204-18.853,0l-12.524,12.526l-21.969-21.97 l18.614-18.613c7.219-7.219,7.219-18.923,0-26.141c-7.218-7.218-18.922-7.218-26.141,0l-18.613,18.614l-21.969-21.969l12.524-12.524 c5.205-5.206,5.205-13.646,0-18.853l-9.513-9.513c-5.205-5.206-13.646-5.206-18.853,0l-44.619,44.621 C16.744,368.448,16.744,376.889,21.95,382.095z"></path> <polygon style="fill:#FFD13F;" points="395.459,302.606 299.013,257.814 303.945,208.052 254.184,212.982 209.393,116.543 192.443,133.494 188.032,203.836 120.23,205.707 107.78,218.156 187.489,240.269 167.651,264.501 229.608,282.388 247.495,344.345 271.728,324.508 293.842,404.224 306.289,391.777 308.16,323.965 378.513,319.552 "></polygon> <g> <path style="fill:#C3C6C8;" d="M313.484,109.586l-9.513-9.513c-5.206-5.205-5.206-13.646,0-18.853l44.619-44.619 c5.207-5.205,13.647-5.205,18.853,0l9.514,9.513c5.206,5.205,5.206,13.646,0,18.853l-44.621,44.619 C327.13,114.792,318.69,114.792,313.484,109.586z"></path> <path style="fill:#C3C6C8;" d="M402.415,198.517l9.512,9.513c5.206,5.205,13.647,5.205,18.854,0l44.619-44.621 c5.206-5.204,5.206-13.646,0-18.851l-9.513-9.514c-5.206-5.206-13.646-5.206-18.853,0l-44.619,44.621 C397.209,184.871,397.209,193.312,402.415,198.517z"></path> </g> <rect x="340.125" y="108.47" transform="matrix(-0.7071 -0.7071 0.7071 -0.7071 578.736 484.337)" style="fill:#F0EFEF;" width="99.106" height="27.677"></rect> <rect x="351.441" y="81.176" transform="matrix(-0.7071 -0.7071 0.7071 -0.7071 551.4537 418.449)" style="opacity:0.1;enable-background:new ;" width="21.898" height="27.677"></rect> <path style="fill:#C3C6C8;" d="M374.356,163.785c-7.218,7.218-18.922,7.218-26.14,0c-7.218-7.219-7.218-18.922,0-26.141 l18.614-18.614l26.14,26.14L374.356,163.785z"></path> <rect x="353.852" y="128.951" transform="matrix(-0.7071 -0.7071 0.7071 -0.7071 536.8639 501.6917)" style="opacity:0.1;enable-background:new ;" width="36.968" height="21.413"></rect> <g> <path style="fill:#C3C6C8;" d="M109.588,313.483l-9.513-9.513c-5.205-5.206-13.646-5.206-18.853,0l-44.619,44.621 c-5.205,5.205-5.205,13.646,0,18.852l9.513,9.514c5.205,5.205,13.646,5.205,18.853,0l44.619-44.621 C114.793,327.129,114.793,318.689,109.588,313.483z"></path> <path style="fill:#C3C6C8;" d="M198.518,402.414l9.513,9.513c5.205,5.206,5.205,13.646,0,18.853l-44.621,44.619 c-5.204,5.206-13.646,5.206-18.853,0l-9.513-9.513c-5.205-5.206-5.205-13.646,0-18.853l44.621-44.619 C184.872,397.208,193.312,397.208,198.518,402.414z"></path> </g> <rect x="72.766" y="375.837" transform="matrix(-0.7071 -0.7071 0.7071 -0.7071 -66.7316 751.7098)" style="fill:#F0EFEF;" width="99.106" height="27.677"></rect> <rect x="84.083" y="348.551" transform="matrix(-0.7071 -0.7071 0.7071 -0.7071 -94.0194 685.8336)" style="opacity:0.1;enable-background:new ;" width="21.897" height="27.677"></rect> <path style="fill:#C3C6C8;" d="M163.787,374.355c7.218-7.218,7.218-18.921,0-26.14c-7.219-7.218-18.922-7.218-26.141,0 l-18.613,18.614l26.14,26.14L163.787,374.355z"></path> <polygon style="fill:#57C9E8;" points="395.459,302.606 299.013,257.814 300.995,237.83 167.651,264.501 229.608,282.388 247.495,344.345 271.728,324.508 293.842,404.224 306.289,391.777 308.16,323.965 378.513,319.552 "></polygon> </g></svg>