<svg height="200px" width="200px" version="1.1" id="Layer_1" xmlns="http://www.w3.org/2000/svg" xmlns:xlink="http://www.w3.org/1999/xlink" viewBox="0 0 457.926 457.926" xml:space="preserve" fill="#000000"><g id="SVGRepo_bgCarrier" stroke-width="0"></g><g id="SVGRepo_tracerCarrier" stroke-linecap="round" stroke-linejoin="round"></g><g id="SVGRepo_iconCarrier"> <g> <polygon style="fill:#A0CE51;" points="149.616,206.932 95.124,206.932 109.857,253.431 134.883,253.431 "></polygon> <polygon style="fill:#A0CE51;" points="362.802,206.932 308.31,206.932 323.043,253.431 348.069,253.431 "></polygon> <circle style="fill:#999999;" cx="122.37" cy="265.429" r="29.999"></circle> <path style="fill:#666666;" d="M122.37,277.427c-6.616,0-11.999-5.382-11.999-11.999c0-6.616,5.382-11.998,11.999-11.998 s11.999,5.382,11.999,11.998C134.368,272.045,128.986,277.427,122.37,277.427z"></path> <circle style="fill:#999999;" cx="335.556" cy="265.429" r="29.999"></circle> <path style="fill:#666666;" d="M335.556,277.427c-6.616,0-11.999-5.382-11.999-11.999c0-6.616,5.382-11.998,11.999-11.998 s11.999,5.382,11.999,11.998C347.555,272.045,342.173,277.427,335.556,277.427z"></path> <path style="fill:#B7ED62;" d="M387.57,221.932H70.356L9.779,194.373c-8.387-3.816-12.093-13.708-8.277-22.095l0,0 c3.816-8.387,13.708-12.093,22.095-8.278l53.992,24.563h302.747L434.329,164c8.387-3.816,18.28-0.11,22.095,8.278l0,0 c3.816,8.387,0.11,18.28-8.277,22.095L387.57,221.932z"></path> </g> </g></svg>